<svg width="1360" height="227" viewBox="0 0 1360 227" fill="none" xmlns="http://www.w3.org/2000/svg">
<path d="M0 227L4.33427 204.045H320.807L316.472 227H0ZM25.3661 22.9551L29.7004 0H346.173L341.839 22.9551H25.3661ZM99.4749 227L128.252 0H247.906L219.129 227H99.4749Z" fill="#25824F"/>
<path d="M312.209 227L337.078 0H440.319L415.45 227H312.209ZM580.543 227L361.13 0H440.532L659.945 227H580.543ZM580.791 227L605.66 0H708.937L684.068 227H580.791Z" fill="#25824F"/>
<path d="M705.846 22.9551L708.261 0H1033.33L1030.92 22.9551H705.846ZM796.119 227L820.988 0H924.264L899.395 227H796.119Z" fill="#25824F"/>
<path d="M1004.2 227L1031.63 0H1145.7L1118.28 227H1004.2ZM1017.56 227L1019.94 204.045H1329.91L1327.56 227H1017.56ZM1039.58 22.9551L1041.93 0H1354.03L1351.69 22.9551H1039.58ZM1218.57 227L1245.92 0H1360L1332.57 227H1218.57Z" fill="#25824F"/>
</svg>
